<svg xmlns="http://www.w3.org/2000/svg" width="366" height="387" fill="none"><g clip-path="url(#A)"><path d="M340.123 189.816h-29.88c-5.933 0-10.722 5.195-10.722 11.708v162.6h-68.482V265.34c0-6.436-4.8-11.71-10.723-11.71h-74.558a10.06 10.06 0 0 0-4.132.889c-1.3.588-2.5 1.45-3.503 2.538a11.81 11.81 0 0 0-2.34 3.8 12.59 12.59 0 0 0-.82 4.482v98.707h-68.4v-162.6c0-6.435-4.86-11.708-10.794-11.708H25.95L183 34.505l53.47 52.882c3.146 3.102 7.72 3.954 11.58 2.016 3.93-1.86 6.433-6.048 6.433-10.7V57.534h52.9v94.83c0 3.257 1.287 6.436 3.503 8.607l29.237 28.845z" fill="#efea5a"/><g fill="#ffca3a"><path d="M359.852 177.72c5.79 5.737 7.72 14.5 4.86 22.408s-9.722 13.027-17.513 13.027h-26.235v162.6a12.57 12.57 0 0 1-.82 4.482 11.81 11.81 0 0 1-2.34 3.8c-1.002 1.087-2.192 1.95-3.502 2.538s-2.715.9-4.132.89h-89.928a10.06 10.06 0 0 1-4.131-.889 10.78 10.78 0 0 1-3.503-2.538 11.81 11.81 0 0 1-2.34-3.8 12.57 12.57 0 0 1-.82-4.482v-98.707H156.55v98.707a12.57 12.57 0 0 1-.82 4.482 11.81 11.81 0 0 1-2.34 3.8c-1.002 1.087-2.192 1.95-3.502 2.538s-2.715.9-4.132.89h-90a10.06 10.06 0 0 1-4.132-.889c-1.3-.59-2.5-1.45-3.503-2.538a11.82 11.82 0 0 1-2.34-3.8c-.542-1.42-.82-2.944-.82-4.482v-162.6H18.8c-7.792 0-14.654-5.118-17.514-13.027s-.93-16.67 4.86-22.408l164.2-162.3c3.45-3.44 7.966-5.35 12.653-5.35s9.203 1.9 12.653 5.35l37.315 36.91v-6.513c0-6.436 4.79-11.63 10.794-11.63h74.415c5.933 0 10.794 5.195 10.794 11.63V147.17l30.88 30.55zm-49.6 12.096h29.88l-29.166-28.845c-2.216-2.25-3.503-5.35-3.503-8.607v-94.83h-52.898V78.78c0 4.652-2.502 8.84-6.434 10.7s-8.435 1.086-11.58-2.016L183 34.505 25.95 189.816h29.81a10.06 10.06 0 0 1 4.132.889c1.3.588 2.5 1.45 3.503 2.538s1.798 2.378 2.34 3.8a12.57 12.57 0 0 1 .82 4.482v162.6h68.482V265.34a12.57 12.57 0 0 1 .82-4.482c.542-1.42 1.337-2.712 2.34-3.8s2.193-1.95 3.503-2.538a10.06 10.06 0 0 1 4.132-.889h74.415c5.934 0 10.723 5.195 10.723 11.71v98.707h68.482v-162.6c0-6.435 4.8-11.63 10.794-11.63z"/><path d="M320.985 364.09v23.34h-21.588v-23.34h21.588z"/></g><path d="M66.552 247.97h232.896v139.415H66.552V247.97z" fill="#efea5a"/><path d="M66.566 364.095v23.34H45.05v-23.34h21.517z" fill="#ffca3a"/></g><defs><clipPath id="A"><path fill="#fff" d="M0 0h366v387H0z"/></clipPath></defs></svg>