<svg xmlns="http://www.w3.org/2000/svg" width="20" height="20" fill="none"><g clip-path="url(#A)"><path d="M19.4 12.192l-1.838-1.437a6.69 6.69 0 0 0 0-1.51l1.84-1.438a.9.9 0 0 0 .217-1.149L17.707 3.35c-.22-.387-.69-.556-1.106-.398l-2.167.872c-.407-.295-.843-.55-1.302-.756L12.8.767c-.06-.442-.44-.77-.885-.767H8.082c-.442-.003-.818.322-.88.76L6.87 3.07c-.457.21-.892.463-1.3.757l-2.173-.873c-.412-.162-.88.004-1.098.39L.384 6.654C.16 7.04.252 7.532.602 7.81L2.44 9.246c-.058.502-.058 1.008 0 1.5L.6 12.194a.9.9 0 0 0-.218 1.149l1.912 3.307c.22.387.69.556 1.106.398l2.167-.872a7.45 7.45 0 0 0 1.302.757l.333 2.3c.06.44.435.77.88.767h3.833c.443.003.82-.32.883-.76l.333-2.308a7.72 7.72 0 0 0 1.3-.757l2.175.874c.412.162.88-.005 1.097-.39l1.92-3.325a.9.9 0 0 0-.223-1.142zM10 14.167A4.17 4.17 0 0 1 5.832 10a4.17 4.17 0 0 1 4.167-4.167A4.17 4.17 0 0 1 14.165 10c-.003 2.3-1.867 4.164-4.167 4.167z" fill="#2e1f27"/></g><defs><clipPath id="A"><path fill="#fff" d="M0 0h20v20H0z"/></clipPath></defs></svg>