<svg xmlns="http://www.w3.org/2000/svg" width="20" height="20" fill="none"><g clip-path="url(#A)" fill="#2e1f27"><path d="M19.1 7.874h-1.88v10.5h1.88v-10.5zm-5.42 3.386H11.8v7.102h1.88V11.26zm-5.455 3.528h-1.88v3.575h1.88v-3.575zm-5.41-.988H.935v4.562h1.88V13.8zm16.73-11.518a1.86 1.86 0 0 0-3.184 1.768l-2.248 1.594a1.87 1.87 0 0 0-2.643-.132c-.583.527-.77 1.36-.48 2.088l-2.1 1.77a1.87 1.87 0 0 0-3.386.456l-1.778-.72C3.583 8.08 2.638 7.37 1.612 7.512S-.123 8.603.018 9.63a1.87 1.87 0 0 0 2.117 1.594c.73-.104 1.33-.62 1.538-1.326l1.778.72a1.88 1.88 0 0 0 2.102 1.613c1.025-.132 1.745-1.077 1.613-2.102l2.248-1.895a1.87 1.87 0 0 0 3.09-1.938l2.225-1.58a1.86 1.86 0 1 0 2.818-2.432z"/></g><defs><clipPath id="A"><path fill="#fff" d="M0 0h20v20H0z"/></clipPath></defs></svg>